<?xml version="1.0" encoding="utf-8" standalone="no"?>
<!DOCTYPE svg PUBLIC "-//W3C//DTD SVG 1.1//EN"
  "http://www.w3.org/Graphics/SVG/1.1/DTD/svg11.dtd">
<!-- Created with matplotlib (https://matplotlib.org/) -->
<svg height="345.6pt" version="1.1" viewBox="0 0 460.8 345.6" width="460.8pt" xmlns="http://www.w3.org/2000/svg" xmlns:xlink="http://www.w3.org/1999/xlink">
 <defs>
  <style type="text/css">
*{stroke-linecap:butt;stroke-linejoin:round;}
  </style>
 </defs>
 <g id="figure_1">
  <g id="patch_1">
   <path d="M 0 345.6 
L 460.8 345.6 
L 460.8 0 
L 0 0 
z
" style="fill:#ffffff;"/>
  </g>
  <g id="axes_1">
   <g id="patch_2">
    <path d="M 57.6 307.584 
L 414.72 307.584 
L 414.72 41.472 
L 57.6 41.472 
z
" style="fill:#ffffff;"/>
   </g>
   <g id="matplotlib.axis_1">
    <g id="xtick_1">
     <g id="line2d_1">
      <path clip-path="url(#p1b33e1bc38)" d="M 57.6 307.584 
L 57.6 41.472 
" style="fill:none;stroke:#b0b0b0;stroke-linecap:square;stroke-width:0.8;"/>
     </g>
     <g id="line2d_2">
      <defs>
       <path d="M 0 0 
L 0 3.5 
" id="med11af423b" style="stroke:#000000;stroke-width:0.8;"/>
      </defs>
      <g>
       <use style="stroke:#000000;stroke-width:0.8;" x="57.6" xlink:href="#med11af423b" y="307.584"/>
      </g>
     </g>
     <g id="text_1">
      <!-- 01 -->
      <defs>
       <path d="M 31.78125 66.40625 
Q 24.171875 66.40625 20.328125 58.90625 
Q 16.5 51.421875 16.5 36.375 
Q 16.5 21.390625 20.328125 13.890625 
Q 24.171875 6.390625 31.78125 6.390625 
Q 39.453125 6.390625 43.28125 13.890625 
Q 47.125 21.390625 47.125 36.375 
Q 47.125 51.421875 43.28125 58.90625 
Q 39.453125 66.40625 31.78125 66.40625 
z
M 31.78125 74.21875 
Q 44.046875 74.21875 50.515625 64.515625 
Q 56.984375 54.828125 56.984375 36.375 
Q 56.984375 17.96875 50.515625 8.265625 
Q 44.046875 -1.421875 31.78125 -1.421875 
Q 19.53125 -1.421875 13.0625 8.265625 
Q 6.59375 17.96875 6.59375 36.375 
Q 6.59375 54.828125 13.0625 64.515625 
Q 19.53125 74.21875 31.78125 74.21875 
z
" id="DejaVuSans-48"/>
       <path d="M 12.40625 8.296875 
L 28.515625 8.296875 
L 28.515625 63.921875 
L 10.984375 60.40625 
L 10.984375 69.390625 
L 28.421875 72.90625 
L 38.28125 72.90625 
L 38.28125 8.296875 
L 54.390625 8.296875 
L 54.390625 0 
L 12.40625 0 
z
" id="DejaVuSans-49"/>
      </defs>
      <g transform="translate(51.2375 322.182437)scale(0.1 -0.1)">
       <use xlink:href="#DejaVuSans-48"/>
       <use x="63.623047" xlink:href="#DejaVuSans-49"/>
      </g>
     </g>
    </g>
    <g id="xtick_2">
     <g id="line2d_3">
      <path clip-path="url(#p1b33e1bc38)" d="M 116.144262 307.584 
L 116.144262 41.472 
" style="fill:none;stroke:#b0b0b0;stroke-linecap:square;stroke-width:0.8;"/>
     </g>
     <g id="line2d_4">
      <g>
       <use style="stroke:#000000;stroke-width:0.8;" x="116.144262" xlink:href="#med11af423b" y="307.584"/>
      </g>
     </g>
     <g id="text_2">
      <!-- 03 -->
      <defs>
       <path d="M 40.578125 39.3125 
Q 47.65625 37.796875 51.625 33 
Q 55.609375 28.21875 55.609375 21.1875 
Q 55.609375 10.40625 48.1875 4.484375 
Q 40.765625 -1.421875 27.09375 -1.421875 
Q 22.515625 -1.421875 17.65625 -0.515625 
Q 12.796875 0.390625 7.625 2.203125 
L 7.625 11.71875 
Q 11.71875 9.328125 16.59375 8.109375 
Q 21.484375 6.890625 26.8125 6.890625 
Q 36.078125 6.890625 40.9375 10.546875 
Q 45.796875 14.203125 45.796875 21.1875 
Q 45.796875 27.640625 41.28125 31.265625 
Q 36.765625 34.90625 28.71875 34.90625 
L 20.21875 34.90625 
L 20.21875 43.015625 
L 29.109375 43.015625 
Q 36.375 43.015625 40.234375 45.921875 
Q 44.09375 48.828125 44.09375 54.296875 
Q 44.09375 59.90625 40.109375 62.90625 
Q 36.140625 65.921875 28.71875 65.921875 
Q 24.65625 65.921875 20.015625 65.03125 
Q 15.375 64.15625 9.8125 62.3125 
L 9.8125 71.09375 
Q 15.4375 72.65625 20.34375 73.4375 
Q 25.25 74.21875 29.59375 74.21875 
Q 40.828125 74.21875 47.359375 69.109375 
Q 53.90625 64.015625 53.90625 55.328125 
Q 53.90625 49.265625 50.4375 45.09375 
Q 46.96875 40.921875 40.578125 39.3125 
z
" id="DejaVuSans-51"/>
      </defs>
      <g transform="translate(109.781762 322.182437)scale(0.1 -0.1)">
       <use xlink:href="#DejaVuSans-48"/>
       <use x="63.623047" xlink:href="#DejaVuSans-51"/>
      </g>
     </g>
    </g>
    <g id="xtick_3">
     <g id="line2d_5">
      <path clip-path="url(#p1b33e1bc38)" d="M 175.664262 307.584 
L 175.664262 41.472 
" style="fill:none;stroke:#b0b0b0;stroke-linecap:square;stroke-width:0.8;"/>
     </g>
     <g id="line2d_6">
      <g>
       <use style="stroke:#000000;stroke-width:0.8;" x="175.664262" xlink:href="#med11af423b" y="307.584"/>
      </g>
     </g>
     <g id="text_3">
      <!-- 05 -->
      <defs>
       <path d="M 10.796875 72.90625 
L 49.515625 72.90625 
L 49.515625 64.59375 
L 19.828125 64.59375 
L 19.828125 46.734375 
Q 21.96875 47.46875 24.109375 47.828125 
Q 26.265625 48.1875 28.421875 48.1875 
Q 40.625 48.1875 47.75 41.5 
Q 54.890625 34.8125 54.890625 23.390625 
Q 54.890625 11.625 47.5625 5.09375 
Q 40.234375 -1.421875 26.90625 -1.421875 
Q 22.3125 -1.421875 17.546875 -0.640625 
Q 12.796875 0.140625 7.71875 1.703125 
L 7.71875 11.625 
Q 12.109375 9.234375 16.796875 8.0625 
Q 21.484375 6.890625 26.703125 6.890625 
Q 35.15625 6.890625 40.078125 11.328125 
Q 45.015625 15.765625 45.015625 23.390625 
Q 45.015625 31 40.078125 35.4375 
Q 35.15625 39.890625 26.703125 39.890625 
Q 22.75 39.890625 18.8125 39.015625 
Q 14.890625 38.140625 10.796875 36.28125 
z
" id="DejaVuSans-53"/>
      </defs>
      <g transform="translate(169.301762 322.182437)scale(0.1 -0.1)">
       <use xlink:href="#DejaVuSans-48"/>
       <use x="63.623047" xlink:href="#DejaVuSans-53"/>
      </g>
     </g>
    </g>
    <g id="xtick_4">
     <g id="line2d_7">
      <path clip-path="url(#p1b33e1bc38)" d="M 235.184262 307.584 
L 235.184262 41.472 
" style="fill:none;stroke:#b0b0b0;stroke-linecap:square;stroke-width:0.8;"/>
     </g>
     <g id="line2d_8">
      <g>
       <use style="stroke:#000000;stroke-width:0.8;" x="235.184262" xlink:href="#med11af423b" y="307.584"/>
      </g>
     </g>
     <g id="text_4">
      <!-- 07 -->
      <defs>
       <path d="M 8.203125 72.90625 
L 55.078125 72.90625 
L 55.078125 68.703125 
L 28.609375 0 
L 18.3125 0 
L 43.21875 64.59375 
L 8.203125 64.59375 
z
" id="DejaVuSans-55"/>
      </defs>
      <g transform="translate(228.821762 322.182437)scale(0.1 -0.1)">
       <use xlink:href="#DejaVuSans-48"/>
       <use x="63.623047" xlink:href="#DejaVuSans-55"/>
      </g>
     </g>
    </g>
    <g id="xtick_5">
     <g id="line2d_9">
      <path clip-path="url(#p1b33e1bc38)" d="M 295.68 307.584 
L 295.68 41.472 
" style="fill:none;stroke:#b0b0b0;stroke-linecap:square;stroke-width:0.8;"/>
     </g>
     <g id="line2d_10">
      <g>
       <use style="stroke:#000000;stroke-width:0.8;" x="295.68" xlink:href="#med11af423b" y="307.584"/>
      </g>
     </g>
     <g id="text_5">
      <!-- 09 -->
      <defs>
       <path d="M 10.984375 1.515625 
L 10.984375 10.5 
Q 14.703125 8.734375 18.5 7.8125 
Q 22.3125 6.890625 25.984375 6.890625 
Q 35.75 6.890625 40.890625 13.453125 
Q 46.046875 20.015625 46.78125 33.40625 
Q 43.953125 29.203125 39.59375 26.953125 
Q 35.25 24.703125 29.984375 24.703125 
Q 19.046875 24.703125 12.671875 31.3125 
Q 6.296875 37.9375 6.296875 49.421875 
Q 6.296875 60.640625 12.9375 67.421875 
Q 19.578125 74.21875 30.609375 74.21875 
Q 43.265625 74.21875 49.921875 64.515625 
Q 56.59375 54.828125 56.59375 36.375 
Q 56.59375 19.140625 48.40625 8.859375 
Q 40.234375 -1.421875 26.421875 -1.421875 
Q 22.703125 -1.421875 18.890625 -0.6875 
Q 15.09375 0.046875 10.984375 1.515625 
z
M 30.609375 32.421875 
Q 37.25 32.421875 41.125 36.953125 
Q 45.015625 41.5 45.015625 49.421875 
Q 45.015625 57.28125 41.125 61.84375 
Q 37.25 66.40625 30.609375 66.40625 
Q 23.96875 66.40625 20.09375 61.84375 
Q 16.21875 57.28125 16.21875 49.421875 
Q 16.21875 41.5 20.09375 36.953125 
Q 23.96875 32.421875 30.609375 32.421875 
z
" id="DejaVuSans-57"/>
      </defs>
      <g transform="translate(289.3175 322.182437)scale(0.1 -0.1)">
       <use xlink:href="#DejaVuSans-48"/>
       <use x="63.623047" xlink:href="#DejaVuSans-57"/>
      </g>
     </g>
    </g>
    <g id="xtick_6">
     <g id="line2d_11">
      <path clip-path="url(#p1b33e1bc38)" d="M 355.2 307.584 
L 355.2 41.472 
" style="fill:none;stroke:#b0b0b0;stroke-linecap:square;stroke-width:0.8;"/>
     </g>
     <g id="line2d_12">
      <g>
       <use style="stroke:#000000;stroke-width:0.8;" x="355.2" xlink:href="#med11af423b" y="307.584"/>
      </g>
     </g>
     <g id="text_6">
      <!-- 11 -->
      <g transform="translate(348.8375 322.182437)scale(0.1 -0.1)">
       <use xlink:href="#DejaVuSans-49"/>
       <use x="63.623047" xlink:href="#DejaVuSans-49"/>
      </g>
     </g>
    </g>
    <g id="xtick_7">
     <g id="line2d_13">
      <path clip-path="url(#p1b33e1bc38)" d="M 414.72 307.584 
L 414.72 41.472 
" style="fill:none;stroke:#b0b0b0;stroke-linecap:square;stroke-width:0.8;"/>
     </g>
     <g id="line2d_14">
      <g>
       <use style="stroke:#000000;stroke-width:0.8;" x="414.72" xlink:href="#med11af423b" y="307.584"/>
      </g>
     </g>
     <g id="text_7">
      <!-- 01 -->
      <g transform="translate(408.3575 322.182437)scale(0.1 -0.1)">
       <use xlink:href="#DejaVuSans-48"/>
       <use x="63.623047" xlink:href="#DejaVuSans-49"/>
      </g>
     </g>
    </g>
    <g id="text_8">
     <!-- Month -->
     <defs>
      <path d="M 9.8125 72.90625 
L 24.515625 72.90625 
L 43.109375 23.296875 
L 61.8125 72.90625 
L 76.515625 72.90625 
L 76.515625 0 
L 66.890625 0 
L 66.890625 64.015625 
L 48.09375 14.015625 
L 38.1875 14.015625 
L 19.390625 64.015625 
L 19.390625 0 
L 9.8125 0 
z
" id="DejaVuSans-77"/>
      <path d="M 30.609375 48.390625 
Q 23.390625 48.390625 19.1875 42.75 
Q 14.984375 37.109375 14.984375 27.296875 
Q 14.984375 17.484375 19.15625 11.84375 
Q 23.34375 6.203125 30.609375 6.203125 
Q 37.796875 6.203125 41.984375 11.859375 
Q 46.1875 17.53125 46.1875 27.296875 
Q 46.1875 37.015625 41.984375 42.703125 
Q 37.796875 48.390625 30.609375 48.390625 
z
M 30.609375 56 
Q 42.328125 56 49.015625 48.375 
Q 55.71875 40.765625 55.71875 27.296875 
Q 55.71875 13.875 49.015625 6.21875 
Q 42.328125 -1.421875 30.609375 -1.421875 
Q 18.84375 -1.421875 12.171875 6.21875 
Q 5.515625 13.875 5.515625 27.296875 
Q 5.515625 40.765625 12.171875 48.375 
Q 18.84375 56 30.609375 56 
z
" id="DejaVuSans-111"/>
      <path d="M 54.890625 33.015625 
L 54.890625 0 
L 45.90625 0 
L 45.90625 32.71875 
Q 45.90625 40.484375 42.875 44.328125 
Q 39.84375 48.1875 33.796875 48.1875 
Q 26.515625 48.1875 22.3125 43.546875 
Q 18.109375 38.921875 18.109375 30.90625 
L 18.109375 0 
L 9.078125 0 
L 9.078125 54.6875 
L 18.109375 54.6875 
L 18.109375 46.1875 
Q 21.34375 51.125 25.703125 53.5625 
Q 30.078125 56 35.796875 56 
Q 45.21875 56 50.046875 50.171875 
Q 54.890625 44.34375 54.890625 33.015625 
z
" id="DejaVuSans-110"/>
      <path d="M 18.3125 70.21875 
L 18.3125 54.6875 
L 36.8125 54.6875 
L 36.8125 47.703125 
L 18.3125 47.703125 
L 18.3125 18.015625 
Q 18.3125 11.328125 20.140625 9.421875 
Q 21.96875 7.515625 27.59375 7.515625 
L 36.8125 7.515625 
L 36.8125 0 
L 27.59375 0 
Q 17.1875 0 13.234375 3.875 
Q 9.28125 7.765625 9.28125 18.015625 
L 9.28125 47.703125 
L 2.6875 47.703125 
L 2.6875 54.6875 
L 9.28125 54.6875 
L 9.28125 70.21875 
z
" id="DejaVuSans-116"/>
      <path d="M 54.890625 33.015625 
L 54.890625 0 
L 45.90625 0 
L 45.90625 32.71875 
Q 45.90625 40.484375 42.875 44.328125 
Q 39.84375 48.1875 33.796875 48.1875 
Q 26.515625 48.1875 22.3125 43.546875 
Q 18.109375 38.921875 18.109375 30.90625 
L 18.109375 0 
L 9.078125 0 
L 9.078125 75.984375 
L 18.109375 75.984375 
L 18.109375 46.1875 
Q 21.34375 51.125 25.703125 53.5625 
Q 30.078125 56 35.796875 56 
Q 45.21875 56 50.046875 50.171875 
Q 54.890625 44.34375 54.890625 33.015625 
z
" id="DejaVuSans-104"/>
     </defs>
     <g transform="translate(220.488906 335.860562)scale(0.1 -0.1)">
      <use xlink:href="#DejaVuSans-77"/>
      <use x="86.279297" xlink:href="#DejaVuSans-111"/>
      <use x="147.460938" xlink:href="#DejaVuSans-110"/>
      <use x="210.839844" xlink:href="#DejaVuSans-116"/>
      <use x="250.048828" xlink:href="#DejaVuSans-104"/>
     </g>
    </g>
   </g>
   <g id="matplotlib.axis_2">
    <g id="ytick_1">
     <g id="line2d_15">
      <path clip-path="url(#p1b33e1bc38)" d="M 57.6 307.584 
L 414.72 307.584 
" style="fill:none;stroke:#b0b0b0;stroke-linecap:square;stroke-width:0.8;"/>
     </g>
     <g id="line2d_16">
      <defs>
       <path d="M 0 0 
L -3.5 0 
" id="m1c3639a166" style="stroke:#000000;stroke-width:0.8;"/>
      </defs>
      <g>
       <use style="stroke:#000000;stroke-width:0.8;" x="57.6" xlink:href="#m1c3639a166" y="307.584"/>
      </g>
     </g>
     <g id="text_9">
      <!-- 0 -->
      <g transform="translate(44.2375 311.383219)scale(0.1 -0.1)">
       <use xlink:href="#DejaVuSans-48"/>
      </g>
     </g>
    </g>
    <g id="ytick_2">
     <g id="line2d_17">
      <path clip-path="url(#p1b33e1bc38)" d="M 57.6 277.344 
L 414.72 277.344 
" style="fill:none;stroke:#b0b0b0;stroke-linecap:square;stroke-width:0.8;"/>
     </g>
     <g id="line2d_18">
      <g>
       <use style="stroke:#000000;stroke-width:0.8;" x="57.6" xlink:href="#m1c3639a166" y="277.344"/>
      </g>
     </g>
     <g id="text_10">
      <!-- 250 -->
      <defs>
       <path d="M 19.1875 8.296875 
L 53.609375 8.296875 
L 53.609375 0 
L 7.328125 0 
L 7.328125 8.296875 
Q 12.9375 14.109375 22.625 23.890625 
Q 32.328125 33.6875 34.8125 36.53125 
Q 39.546875 41.84375 41.421875 45.53125 
Q 43.3125 49.21875 43.3125 52.78125 
Q 43.3125 58.59375 39.234375 62.25 
Q 35.15625 65.921875 28.609375 65.921875 
Q 23.96875 65.921875 18.8125 64.3125 
Q 13.671875 62.703125 7.8125 59.421875 
L 7.8125 69.390625 
Q 13.765625 71.78125 18.9375 73 
Q 24.125 74.21875 28.421875 74.21875 
Q 39.75 74.21875 46.484375 68.546875 
Q 53.21875 62.890625 53.21875 53.421875 
Q 53.21875 48.921875 51.53125 44.890625 
Q 49.859375 40.875 45.40625 35.40625 
Q 44.1875 33.984375 37.640625 27.21875 
Q 31.109375 20.453125 19.1875 8.296875 
z
" id="DejaVuSans-50"/>
      </defs>
      <g transform="translate(31.5125 281.143219)scale(0.1 -0.1)">
       <use xlink:href="#DejaVuSans-50"/>
       <use x="63.623047" xlink:href="#DejaVuSans-53"/>
       <use x="127.246094" xlink:href="#DejaVuSans-48"/>
      </g>
     </g>
    </g>
    <g id="ytick_3">
     <g id="line2d_19">
      <path clip-path="url(#p1b33e1bc38)" d="M 57.6 247.104 
L 414.72 247.104 
" style="fill:none;stroke:#b0b0b0;stroke-linecap:square;stroke-width:0.8;"/>
     </g>
     <g id="line2d_20">
      <g>
       <use style="stroke:#000000;stroke-width:0.8;" x="57.6" xlink:href="#m1c3639a166" y="247.104"/>
      </g>
     </g>
     <g id="text_11">
      <!-- 500 -->
      <g transform="translate(31.5125 250.903219)scale(0.1 -0.1)">
       <use xlink:href="#DejaVuSans-53"/>
       <use x="63.623047" xlink:href="#DejaVuSans-48"/>
       <use x="127.246094" xlink:href="#DejaVuSans-48"/>
      </g>
     </g>
    </g>
    <g id="ytick_4">
     <g id="line2d_21">
      <path clip-path="url(#p1b33e1bc38)" d="M 57.6 216.864 
L 414.72 216.864 
" style="fill:none;stroke:#b0b0b0;stroke-linecap:square;stroke-width:0.8;"/>
     </g>
     <g id="line2d_22">
      <g>
       <use style="stroke:#000000;stroke-width:0.8;" x="57.6" xlink:href="#m1c3639a166" y="216.864"/>
      </g>
     </g>
     <g id="text_12">
      <!-- 750 -->
      <g transform="translate(31.5125 220.663219)scale(0.1 -0.1)">
       <use xlink:href="#DejaVuSans-55"/>
       <use x="63.623047" xlink:href="#DejaVuSans-53"/>
       <use x="127.246094" xlink:href="#DejaVuSans-48"/>
      </g>
     </g>
    </g>
    <g id="ytick_5">
     <g id="line2d_23">
      <path clip-path="url(#p1b33e1bc38)" d="M 57.6 186.624 
L 414.72 186.624 
" style="fill:none;stroke:#b0b0b0;stroke-linecap:square;stroke-width:0.8;"/>
     </g>
     <g id="line2d_24">
      <g>
       <use style="stroke:#000000;stroke-width:0.8;" x="57.6" xlink:href="#m1c3639a166" y="186.624"/>
      </g>
     </g>
     <g id="text_13">
      <!-- 1000 -->
      <g transform="translate(25.15 190.423219)scale(0.1 -0.1)">
       <use xlink:href="#DejaVuSans-49"/>
       <use x="63.623047" xlink:href="#DejaVuSans-48"/>
       <use x="127.246094" xlink:href="#DejaVuSans-48"/>
       <use x="190.869141" xlink:href="#DejaVuSans-48"/>
      </g>
     </g>
    </g>
    <g id="ytick_6">
     <g id="line2d_25">
      <path clip-path="url(#p1b33e1bc38)" d="M 57.6 156.384 
L 414.72 156.384 
" style="fill:none;stroke:#b0b0b0;stroke-linecap:square;stroke-width:0.8;"/>
     </g>
     <g id="line2d_26">
      <g>
       <use style="stroke:#000000;stroke-width:0.8;" x="57.6" xlink:href="#m1c3639a166" y="156.384"/>
      </g>
     </g>
     <g id="text_14">
      <!-- 1250 -->
      <g transform="translate(25.15 160.183219)scale(0.1 -0.1)">
       <use xlink:href="#DejaVuSans-49"/>
       <use x="63.623047" xlink:href="#DejaVuSans-50"/>
       <use x="127.246094" xlink:href="#DejaVuSans-53"/>
       <use x="190.869141" xlink:href="#DejaVuSans-48"/>
      </g>
     </g>
    </g>
    <g id="ytick_7">
     <g id="line2d_27">
      <path clip-path="url(#p1b33e1bc38)" d="M 57.6 126.144 
L 414.72 126.144 
" style="fill:none;stroke:#b0b0b0;stroke-linecap:square;stroke-width:0.8;"/>
     </g>
     <g id="line2d_28">
      <g>
       <use style="stroke:#000000;stroke-width:0.8;" x="57.6" xlink:href="#m1c3639a166" y="126.144"/>
      </g>
     </g>
     <g id="text_15">
      <!-- 1500 -->
      <g transform="translate(25.15 129.943219)scale(0.1 -0.1)">
       <use xlink:href="#DejaVuSans-49"/>
       <use x="63.623047" xlink:href="#DejaVuSans-53"/>
       <use x="127.246094" xlink:href="#DejaVuSans-48"/>
       <use x="190.869141" xlink:href="#DejaVuSans-48"/>
      </g>
     </g>
    </g>
    <g id="ytick_8">
     <g id="line2d_29">
      <path clip-path="url(#p1b33e1bc38)" d="M 57.6 95.904 
L 414.72 95.904 
" style="fill:none;stroke:#b0b0b0;stroke-linecap:square;stroke-width:0.8;"/>
     </g>
     <g id="line2d_30">
      <g>
       <use style="stroke:#000000;stroke-width:0.8;" x="57.6" xlink:href="#m1c3639a166" y="95.904"/>
      </g>
     </g>
     <g id="text_16">
      <!-- 1750 -->
      <g transform="translate(25.15 99.703219)scale(0.1 -0.1)">
       <use xlink:href="#DejaVuSans-49"/>
       <use x="63.623047" xlink:href="#DejaVuSans-55"/>
       <use x="127.246094" xlink:href="#DejaVuSans-53"/>
       <use x="190.869141" xlink:href="#DejaVuSans-48"/>
      </g>
     </g>
    </g>
    <g id="ytick_9">
     <g id="line2d_31">
      <path clip-path="url(#p1b33e1bc38)" d="M 57.6 65.664 
L 414.72 65.664 
" style="fill:none;stroke:#b0b0b0;stroke-linecap:square;stroke-width:0.8;"/>
     </g>
     <g id="line2d_32">
      <g>
       <use style="stroke:#000000;stroke-width:0.8;" x="57.6" xlink:href="#m1c3639a166" y="65.664"/>
      </g>
     </g>
     <g id="text_17">
      <!-- 2000 -->
      <g transform="translate(25.15 69.463219)scale(0.1 -0.1)">
       <use xlink:href="#DejaVuSans-50"/>
       <use x="63.623047" xlink:href="#DejaVuSans-48"/>
       <use x="127.246094" xlink:href="#DejaVuSans-48"/>
       <use x="190.869141" xlink:href="#DejaVuSans-48"/>
      </g>
     </g>
    </g>
    <g id="text_18">
     <!-- Cumulative distance (km) -->
     <defs>
      <path d="M 64.40625 67.28125 
L 64.40625 56.890625 
Q 59.421875 61.53125 53.78125 63.8125 
Q 48.140625 66.109375 41.796875 66.109375 
Q 29.296875 66.109375 22.65625 58.46875 
Q 16.015625 50.828125 16.015625 36.375 
Q 16.015625 21.96875 22.65625 14.328125 
Q 29.296875 6.6875 41.796875 6.6875 
Q 48.140625 6.6875 53.78125 8.984375 
Q 59.421875 11.28125 64.40625 15.921875 
L 64.40625 5.609375 
Q 59.234375 2.09375 53.4375 0.328125 
Q 47.65625 -1.421875 41.21875 -1.421875 
Q 24.65625 -1.421875 15.125 8.703125 
Q 5.609375 18.84375 5.609375 36.375 
Q 5.609375 53.953125 15.125 64.078125 
Q 24.65625 74.21875 41.21875 74.21875 
Q 47.75 74.21875 53.53125 72.484375 
Q 59.328125 70.75 64.40625 67.28125 
z
" id="DejaVuSans-67"/>
      <path d="M 8.5 21.578125 
L 8.5 54.6875 
L 17.484375 54.6875 
L 17.484375 21.921875 
Q 17.484375 14.15625 20.5 10.265625 
Q 23.53125 6.390625 29.59375 6.390625 
Q 36.859375 6.390625 41.078125 11.03125 
Q 45.3125 15.671875 45.3125 23.6875 
L 45.3125 54.6875 
L 54.296875 54.6875 
L 54.296875 0 
L 45.3125 0 
L 45.3125 8.40625 
Q 42.046875 3.421875 37.71875 1 
Q 33.40625 -1.421875 27.6875 -1.421875 
Q 18.265625 -1.421875 13.375 4.4375 
Q 8.5 10.296875 8.5 21.578125 
z
M 31.109375 56 
z
" id="DejaVuSans-117"/>
      <path d="M 52 44.1875 
Q 55.375 50.25 60.0625 53.125 
Q 64.75 56 71.09375 56 
Q 79.640625 56 84.28125 50.015625 
Q 88.921875 44.046875 88.921875 33.015625 
L 88.921875 0 
L 79.890625 0 
L 79.890625 32.71875 
Q 79.890625 40.578125 77.09375 44.375 
Q 74.3125 48.1875 68.609375 48.1875 
Q 61.625 48.1875 57.5625 43.546875 
Q 53.515625 38.921875 53.515625 30.90625 
L 53.515625 0 
L 44.484375 0 
L 44.484375 32.71875 
Q 44.484375 40.625 41.703125 44.40625 
Q 38.921875 48.1875 33.109375 48.1875 
Q 26.21875 48.1875 22.15625 43.53125 
Q 18.109375 38.875 18.109375 30.90625 
L 18.109375 0 
L 9.078125 0 
L 9.078125 54.6875 
L 18.109375 54.6875 
L 18.109375 46.1875 
Q 21.1875 51.21875 25.484375 53.609375 
Q 29.78125 56 35.6875 56 
Q 41.65625 56 45.828125 52.96875 
Q 50 49.953125 52 44.1875 
z
" id="DejaVuSans-109"/>
      <path d="M 9.421875 75.984375 
L 18.40625 75.984375 
L 18.40625 0 
L 9.421875 0 
z
" id="DejaVuSans-108"/>
      <path d="M 34.28125 27.484375 
Q 23.390625 27.484375 19.1875 25 
Q 14.984375 22.515625 14.984375 16.5 
Q 14.984375 11.71875 18.140625 8.90625 
Q 21.296875 6.109375 26.703125 6.109375 
Q 34.1875 6.109375 38.703125 11.40625 
Q 43.21875 16.703125 43.21875 25.484375 
L 43.21875 27.484375 
z
M 52.203125 31.203125 
L 52.203125 0 
L 43.21875 0 
L 43.21875 8.296875 
Q 40.140625 3.328125 35.546875 0.953125 
Q 30.953125 -1.421875 24.3125 -1.421875 
Q 15.921875 -1.421875 10.953125 3.296875 
Q 6 8.015625 6 15.921875 
Q 6 25.140625 12.171875 29.828125 
Q 18.359375 34.515625 30.609375 34.515625 
L 43.21875 34.515625 
L 43.21875 35.40625 
Q 43.21875 41.609375 39.140625 45 
Q 35.0625 48.390625 27.6875 48.390625 
Q 23 48.390625 18.546875 47.265625 
Q 14.109375 46.140625 10.015625 43.890625 
L 10.015625 52.203125 
Q 14.9375 54.109375 19.578125 55.046875 
Q 24.21875 56 28.609375 56 
Q 40.484375 56 46.34375 49.84375 
Q 52.203125 43.703125 52.203125 31.203125 
z
" id="DejaVuSans-97"/>
      <path d="M 9.421875 54.6875 
L 18.40625 54.6875 
L 18.40625 0 
L 9.421875 0 
z
M 9.421875 75.984375 
L 18.40625 75.984375 
L 18.40625 64.59375 
L 9.421875 64.59375 
z
" id="DejaVuSans-105"/>
      <path d="M 2.984375 54.6875 
L 12.5 54.6875 
L 29.59375 8.796875 
L 46.6875 54.6875 
L 56.203125 54.6875 
L 35.6875 0 
L 23.484375 0 
z
" id="DejaVuSans-118"/>
      <path d="M 56.203125 29.59375 
L 56.203125 25.203125 
L 14.890625 25.203125 
Q 15.484375 15.921875 20.484375 11.0625 
Q 25.484375 6.203125 34.421875 6.203125 
Q 39.59375 6.203125 44.453125 7.46875 
Q 49.3125 8.734375 54.109375 11.28125 
L 54.109375 2.78125 
Q 49.265625 0.734375 44.1875 -0.34375 
Q 39.109375 -1.421875 33.890625 -1.421875 
Q 20.796875 -1.421875 13.15625 6.1875 
Q 5.515625 13.8125 5.515625 26.8125 
Q 5.515625 40.234375 12.765625 48.109375 
Q 20.015625 56 32.328125 56 
Q 43.359375 56 49.78125 48.890625 
Q 56.203125 41.796875 56.203125 29.59375 
z
M 47.21875 32.234375 
Q 47.125 39.59375 43.09375 43.984375 
Q 39.0625 48.390625 32.421875 48.390625 
Q 24.90625 48.390625 20.390625 44.140625 
Q 15.875 39.890625 15.1875 32.171875 
z
" id="DejaVuSans-101"/>
      <path id="DejaVuSans-32"/>
      <path d="M 45.40625 46.390625 
L 45.40625 75.984375 
L 54.390625 75.984375 
L 54.390625 0 
L 45.40625 0 
L 45.40625 8.203125 
Q 42.578125 3.328125 38.25 0.953125 
Q 33.9375 -1.421875 27.875 -1.421875 
Q 17.96875 -1.421875 11.734375 6.484375 
Q 5.515625 14.40625 5.515625 27.296875 
Q 5.515625 40.1875 11.734375 48.09375 
Q 17.96875 56 27.875 56 
Q 33.9375 56 38.25 53.625 
Q 42.578125 51.265625 45.40625 46.390625 
z
M 14.796875 27.296875 
Q 14.796875 17.390625 18.875 11.75 
Q 22.953125 6.109375 30.078125 6.109375 
Q 37.203125 6.109375 41.296875 11.75 
Q 45.40625 17.390625 45.40625 27.296875 
Q 45.40625 37.203125 41.296875 42.84375 
Q 37.203125 48.484375 30.078125 48.484375 
Q 22.953125 48.484375 18.875 42.84375 
Q 14.796875 37.203125 14.796875 27.296875 
z
" id="DejaVuSans-100"/>
      <path d="M 44.28125 53.078125 
L 44.28125 44.578125 
Q 40.484375 46.53125 36.375 47.5 
Q 32.28125 48.484375 27.875 48.484375 
Q 21.1875 48.484375 17.84375 46.4375 
Q 14.5 44.390625 14.5 40.28125 
Q 14.5 37.15625 16.890625 35.375 
Q 19.28125 33.59375 26.515625 31.984375 
L 29.59375 31.296875 
Q 39.15625 29.25 43.1875 25.515625 
Q 47.21875 21.78125 47.21875 15.09375 
Q 47.21875 7.46875 41.1875 3.015625 
Q 35.15625 -1.421875 24.609375 -1.421875 
Q 20.21875 -1.421875 15.453125 -0.5625 
Q 10.6875 0.296875 5.421875 2 
L 5.421875 11.28125 
Q 10.40625 8.6875 15.234375 7.390625 
Q 20.0625 6.109375 24.8125 6.109375 
Q 31.15625 6.109375 34.5625 8.28125 
Q 37.984375 10.453125 37.984375 14.40625 
Q 37.984375 18.0625 35.515625 20.015625 
Q 33.0625 21.96875 24.703125 23.78125 
L 21.578125 24.515625 
Q 13.234375 26.265625 9.515625 29.90625 
Q 5.8125 33.546875 5.8125 39.890625 
Q 5.8125 47.609375 11.28125 51.796875 
Q 16.75 56 26.8125 56 
Q 31.78125 56 36.171875 55.265625 
Q 40.578125 54.546875 44.28125 53.078125 
z
" id="DejaVuSans-115"/>
      <path d="M 48.78125 52.59375 
L 48.78125 44.1875 
Q 44.96875 46.296875 41.140625 47.34375 
Q 37.3125 48.390625 33.40625 48.390625 
Q 24.65625 48.390625 19.8125 42.84375 
Q 14.984375 37.3125 14.984375 27.296875 
Q 14.984375 17.28125 19.8125 11.734375 
Q 24.65625 6.203125 33.40625 6.203125 
Q 37.3125 6.203125 41.140625 7.25 
Q 44.96875 8.296875 48.78125 10.40625 
L 48.78125 2.09375 
Q 45.015625 0.34375 40.984375 -0.53125 
Q 36.96875 -1.421875 32.421875 -1.421875 
Q 20.0625 -1.421875 12.78125 6.34375 
Q 5.515625 14.109375 5.515625 27.296875 
Q 5.515625 40.671875 12.859375 48.328125 
Q 20.21875 56 33.015625 56 
Q 37.15625 56 41.109375 55.140625 
Q 45.0625 54.296875 48.78125 52.59375 
z
" id="DejaVuSans-99"/>
      <path d="M 31 75.875 
Q 24.46875 64.65625 21.28125 53.65625 
Q 18.109375 42.671875 18.109375 31.390625 
Q 18.109375 20.125 21.3125 9.0625 
Q 24.515625 -2 31 -13.1875 
L 23.1875 -13.1875 
Q 15.875 -1.703125 12.234375 9.375 
Q 8.59375 20.453125 8.59375 31.390625 
Q 8.59375 42.28125 12.203125 53.3125 
Q 15.828125 64.359375 23.1875 75.875 
z
" id="DejaVuSans-40"/>
      <path d="M 9.078125 75.984375 
L 18.109375 75.984375 
L 18.109375 31.109375 
L 44.921875 54.6875 
L 56.390625 54.6875 
L 27.390625 29.109375 
L 57.625 0 
L 45.90625 0 
L 18.109375 26.703125 
L 18.109375 0 
L 9.078125 0 
z
" id="DejaVuSans-107"/>
      <path d="M 8.015625 75.875 
L 15.828125 75.875 
Q 23.140625 64.359375 26.78125 53.3125 
Q 30.421875 42.28125 30.421875 31.390625 
Q 30.421875 20.453125 26.78125 9.375 
Q 23.140625 -1.703125 15.828125 -13.1875 
L 8.015625 -13.1875 
Q 14.5 -2 17.703125 9.0625 
Q 20.90625 20.125 20.90625 31.390625 
Q 20.90625 42.671875 17.703125 53.65625 
Q 14.5 64.65625 8.015625 75.875 
z
" id="DejaVuSans-41"/>
     </defs>
     <g transform="translate(19.070312 239.097531)rotate(-90)scale(0.1 -0.1)">
      <use xlink:href="#DejaVuSans-67"/>
      <use x="69.824219" xlink:href="#DejaVuSans-117"/>
      <use x="133.203125" xlink:href="#DejaVuSans-109"/>
      <use x="230.615234" xlink:href="#DejaVuSans-117"/>
      <use x="293.994141" xlink:href="#DejaVuSans-108"/>
      <use x="321.777344" xlink:href="#DejaVuSans-97"/>
      <use x="383.056641" xlink:href="#DejaVuSans-116"/>
      <use x="422.265625" xlink:href="#DejaVuSans-105"/>
      <use x="450.048828" xlink:href="#DejaVuSans-118"/>
      <use x="509.228516" xlink:href="#DejaVuSans-101"/>
      <use x="570.751953" xlink:href="#DejaVuSans-32"/>
      <use x="602.539062" xlink:href="#DejaVuSans-100"/>
      <use x="666.015625" xlink:href="#DejaVuSans-105"/>
      <use x="693.798828" xlink:href="#DejaVuSans-115"/>
      <use x="745.898438" xlink:href="#DejaVuSans-116"/>
      <use x="785.107422" xlink:href="#DejaVuSans-97"/>
      <use x="846.386719" xlink:href="#DejaVuSans-110"/>
      <use x="909.765625" xlink:href="#DejaVuSans-99"/>
      <use x="964.746094" xlink:href="#DejaVuSans-101"/>
      <use x="1026.269531" xlink:href="#DejaVuSans-32"/>
      <use x="1058.056641" xlink:href="#DejaVuSans-40"/>
      <use x="1097.070312" xlink:href="#DejaVuSans-107"/>
      <use x="1154.980469" xlink:href="#DejaVuSans-109"/>
      <use x="1252.392578" xlink:href="#DejaVuSans-41"/>
     </g>
    </g>
   </g>
   <g id="line2d_33">
    <path clip-path="url(#p1b33e1bc38)" d="M 124.925902 305.758593 
L 125.901639 305.112424 
L 128.828852 304.470369 
L 131.756066 302.620769 
L 132.731803 301.964924 
L 138.58623 301.295652 
L 139.561967 300.647791 
L 145.416393 298.821658 
L 146.392131 298.171135 
L 152.246557 296.349961 
L 153.222295 295.698349 
L 159.076721 295.045528 
L 160.052459 293.834477 
L 165.906885 292.59125 
L 166.882623 291.349354 
L 172.737049 290.108788 
L 173.712787 288.872698 
L 174.688525 287.62814 
L 175.664262 286.97919 
L 177.615738 286.321046 
L 178.591475 285.667862 
L 179.567213 285.015404 
L 192.251803 283.777741 
L 194.203279 282.541409 
L 198.10623 281.881693 
L 201.033443 280.642458 
L 207.863607 278.81826 
L 211.766557 278.163625 
L 214.69377 276.309066 
L 216.645246 275.654552 
L 221.523934 273.834829 
L 227.378361 273.175839 
L 228.354098 271.290799 
L 229.329836 270.637736 
L 231.281311 269.985156 
L 234.208525 268.520452 
L 235.184262 267.87259 
L 241.038689 267.01704 
L 242.014426 265.133088 
L 245.917377 264.48063 
L 248.84459 263.752934 
L 249.820328 262.421649 
L 251.771803 261.771972 
L 254.699016 260.454718 
L 255.674754 259.215967 
L 256.650492 258.565323 
L 258.601967 257.909236 
L 260.553443 257.256657 
L 262.504918 256.535856 
L 263.480656 255.881462 
L 268.359344 254.639808 
L 269.335082 252.819118 
L 272.262295 252.173676 
L 274.21377 250.34972 
L 275.189508 249.615009 
L 279.092459 247.049568 
L 281.043934 245.805736 
L 282.019672 244.559244 
L 282.99541 243.312993 
L 283.971148 242.654728 
L 288.849836 241.418033 
L 289.825574 240.670259 
L 295.68 239.322643 
L 296.655738 238.080989 
L 298.607213 237.324989 
L 302.510164 235.436682 
L 306.413115 234.705358 
L 309.340328 233.977179 
L 310.316066 232.641901 
L 311.291803 231.912271 
L 316.170492 231.177681 
L 317.14623 229.833331 
L 318.121967 228.473257 
L 322.024918 227.71133 
L 326.903607 226.944685 
L 330.806557 225.59707 
L 331.782295 223.716747 
L 334.709508 223.056063 
L 337.636721 221.719939 
L 341.539672 220.972769 
L 343.491148 220.223059 
L 344.466885 217.680238 
L 348.369836 217.030925 
L 350.321311 215.69226 
L 351.297049 214.453267 
L 353.248525 213.794882 
L 356.175738 213.054244 
L 357.151475 212.298365 
L 358.127213 210.413929 
L 361.054426 209.683452 
L 363.981639 208.343457 
L 364.957377 207.003704 
L 367.88459 206.240809 
L 371.787541 204.901661 
L 376.66623 203.562755 
L 377.641967 202.228929 
L 378.617705 200.881192 
L 385.447869 198.309825 
L 389.35082 197.654705 
L 399.108197 196.427687 
L 402.03541 195.677009 
L 403.011148 194.915082 
L 405.938361 193.573878 
L 406.914098 192.218521 
L 409.841311 191.468448 
L 410.817049 190.816232 
L 411.792787 189.58002 
L 412.768525 188.340543 
" style="fill:none;stroke:#1f77b4;stroke-linecap:square;stroke-width:1.5;"/>
   </g>
   <g id="line2d_34">
    <path clip-path="url(#p1b33e1bc38)" d="M 59.551475 306.220781 
L 62.478689 302.150961 
L 67.357377 301.497777 
L 68.333115 299.590479 
L 70.28459 296.887749 
L 74.187541 296.233718 
L 76.139016 293.5224 
L 80.041967 292.870063 
L 81.993443 291.518214 
L 82.96918 290.165881 
L 88.823607 288.70674 
L 89.799344 287.215062 
L 93.702295 286.547725 
L 95.65377 285.06657 
L 96.629508 283.199674 
L 97.605246 281.847583 
L 101.508197 281.179521 
L 103.459672 279.704051 
L 109.314098 278.348573 
L 110.289836 276.994788 
L 113.217049 276.332774 
L 121.998689 274.837467 
L 124.925902 272.282671 
L 128.828852 271.614851 
L 131.756066 270.081804 
L 134.683279 269.414951 
L 135.659016 268.125396 
L 137.610492 266.852292 
L 138.58623 265.552819 
L 141.513443 264.913425 
L 144.440656 263.634273 
L 145.416393 262.340605 
L 146.392131 261.676656 
L 151.27082 260.351902 
L 152.246557 258.815589 
L 162.003934 258.147769 
L 163.95541 257.478376 
L 164.931148 256.187249 
L 170.785574 255.488826 
L 171.761311 254.18899 
L 173.712787 252.904758 
L 176.64 251.621493 
L 177.615738 250.27412 
L 179.567213 248.88816 
L 180.542951 247.646506 
L 186.397377 246.347758 
L 187.373115 245.684897 
L 192.251803 244.458242 
L 193.227541 243.183928 
L 196.154754 242.521309 
L 200.057705 241.296589 
L 201.033443 240.629737 
L 203.960656 239.407436 
L 205.912131 238.739495 
L 206.887869 236.854454 
L 210.79082 235.51204 
L 214.69377 232.965348 
L 220.548197 231.083574 
L 223.47541 230.415391 
L 227.378361 228.537124 
L 229.329836 227.866401 
L 232.257049 227.206322 
L 234.208525 225.886769 
L 239.087213 225.226207 
L 240.062951 223.877745 
L 243.965902 223.218271 
L 246.893115 221.990285 
L 248.84459 221.325247 
L 253.723279 220.660088 
L 254.699016 219.382992 
L 255.674754 218.714809 
L 257.62623 218.042029 
L 258.601967 217.369008 
L 261.52918 215.532956 
L 262.504918 214.308115 
L 263.480656 213.638964 
L 266.407869 212.971386 
L 268.359344 211.273955 
L 272.262295 209.942911 
L 274.21377 207.499156 
L 280.068197 206.232947 
L 281.043934 205.009678 
L 282.99541 203.740203 
L 284.946885 203.094397 
L 287.874098 202.435286 
L 288.849836 201.20222 
L 292.752787 199.875531 
L 294.704262 198.656133 
L 295.68 196.833145 
L 297.631475 196.177179 
L 300.558689 195.504883 
L 301.534426 194.578572 
L 304.461639 193.911477 
L 306.413115 193.251882 
L 308.36459 191.974545 
L 309.340328 190.743293 
L 312.267541 190.077529 
L 314.219016 188.845188 
L 322.024918 187.569665 
L 323.000656 186.340349 
L 325.927869 185.668174 
L 328.855082 184.44926 
L 329.83082 183.199018 
L 336.660984 181.970185 
L 337.636721 181.302849 
L 339.588197 180.638415 
L 351.297049 179.982691 
L 357.151475 178.089909 
L 358.127213 176.856843 
L 363.005902 175.00047 
L 363.981639 174.335432 
L 367.88459 173.67245 
L 370.811803 171.11596 
L 375.690492 170.44439 
L 376.66623 169.217856 
L 378.617705 168.580518 
L 381.544918 167.922979 
L 383.496393 166.699953 
L 387.399344 166.444848 
L 391.302295 165.214927 
L 394.229508 164.585209 
L 398.132459 163.368714 
L 404.962623 162.739843 
L 406.914098 162.096699 
L 410.817049 161.483916 
L 411.792787 160.267905 
L 411.792787 160.267905 
" style="fill:none;stroke:#ff7f0e;stroke-linecap:square;stroke-width:1.5;"/>
   </g>
   <g id="line2d_35">
    <path clip-path="url(#p1b33e1bc38)" d="M 60.527213 306.357949 
L 61.502951 305.128512 
L 66.381639 304.492383 
L 69.308852 300.817498 
L 75.163279 299.587818 
L 76.139016 298.967535 
L 80.041967 298.331286 
L 81.017705 297.694068 
L 86.872131 297.057577 
L 88.823607 294.611887 
L 92.726557 293.337089 
L 94.678033 292.102934 
L 95.65377 290.875553 
L 97.605246 289.659905 
L 103.459672 287.785751 
L 106.386885 287.149743 
L 109.314098 285.927443 
L 114.192787 285.289016 
L 116.144262 284.060304 
L 121.998689 282.196915 
L 123.950164 280.978727 
L 126.877377 280.341873 
L 129.80459 279.120781 
L 132.731803 278.480298 
L 134.683279 277.247111 
L 136.634754 274.790051 
L 149.319344 272.801468 
L 150.295082 271.338336 
L 154.198033 270.690958 
L 155.17377 269.995075 
L 157.125246 266.984502 
L 159.076721 266.31644 
L 163.95541 262.886014 
L 165.906885 262.179245 
L 168.834098 260.120506 
L 169.809836 258.671163 
L 171.761311 257.366004 
L 175.664262 254.567111 
L 176.64 253.149097 
L 177.615738 251.937804 
L 178.591475 251.796401 
L 183.470164 248.324728 
L 184.445902 248.140748 
L 195.179016 240.608085 
L 197.130492 239.910146 
L 199.081967 238.394396 
L 202.984918 235.639048 
L 203.960656 234.345381 
L 204.936393 234.163336 
L 206.887869 233.468179 
L 210.79082 232.77278 
L 211.766557 232.1629 
L 214.69377 231.470646 
L 215.669508 230.773432 
L 219.572459 230.079364 
L 224.451148 228.79114 
L 225.426885 228.148479 
L 228.354098 227.462152 
L 231.281311 226.172719 
L 232.257049 225.404865 
L 235.184262 224.707288 
L 237.135738 223.421363 
L 239.087213 222.740479 
L 240.062951 222.251437 
L 242.014426 221.561844 
L 245.917377 220.804272 
L 249.820328 219.526572 
L 254.699016 216.057076 
L 256.650492 215.372442 
L 257.62623 214.726274 
L 259.577705 214.061962 
L 265.432131 212.682776 
L 266.407869 211.886617 
L 268.359344 211.203798 
L 271.286557 209.224408 
L 272.262295 207.934733 
L 273.238033 207.202441 
L 274.21377 205.924499 
L 275.189508 204.334842 
L 277.140984 202.904732 
L 278.116721 201.610823 
L 280.068197 200.217122 
L 282.99541 199.520271 
L 285.922623 198.23362 
L 286.898361 196.958701 
L 287.874098 196.265601 
L 290.801311 195.569718 
L 292.752787 194.882786 
L 293.728525 194.184726 
L 296.655738 193.492472 
L 298.607213 192.092723 
L 299.582951 190.802805 
L 300.558689 188.927804 
L 302.510164 188.238816 
L 305.437377 187.542933 
L 307.388852 184.964913 
L 309.340328 184.274715 
L 310.316066 183.577985 
L 313.243279 181.706855 
L 314.219016 180.473426 
L 315.194754 178.894656 
L 316.170492 177.537727 
L 320.073443 175.959804 
L 321.04918 174.382848 
L 323.976393 173.395693 
L 324.952131 172.395475 
L 326.903607 170.819729 
L 327.879344 169.229589 
L 329.83082 168.229129 
L 330.806557 167.241007 
L 334.709508 165.943711 
L 336.660984 164.954621 
L 339.588197 163.957789 
L 341.539672 163.677283 
L 341.539672 162.548968 
L 345.442623 160.573571 
L 347.394098 158.999397 
L 348.369836 156.166393 
L 352.272787 155.17186 
L 353.248525 154.171279 
L 355.2 150.975636 
L 356.175738 149.986063 
L 357.151475 149.289575 
L 360.078689 148.288631 
L 361.054426 147.294703 
L 362.030164 145.711578 
L 364.957377 144.714384 
L 366.908852 143.716101 
L 368.860328 140.558198 
L 371.787541 139.56548 
L 372.763279 137.987556 
L 374.714754 136.394271 
L 375.690492 134.804615 
L 376.66623 133.509254 
L 381.544918 131.926009 
L 382.520656 129.147558 
L 385.447869 128.155807 
L 388.375082 126.53833 
L 389.35082 124.947101 
L 391.302295 123.958616 
L 392.278033 122.966381 
L 394.229508 121.970517 
L 395.205246 120.396707 
L 396.180984 117.622973 
L 398.132459 116.03622 
L 401.059672 115.048339 
L 403.011148 111.855842 
L 404.962623 110.860946 
L 408.865574 109.269475 
L 409.841311 107.679698 
L 411.792787 106.088106 
L 413.744262 104.794802 
L 413.744262 104.794802 
" style="fill:none;stroke:#2ca02c;stroke-linecap:square;stroke-width:1.5;"/>
   </g>
   <g id="line2d_36">
    <path clip-path="url(#p1b33e1bc38)" d="M 57.6 306.602168 
L 58.575738 305.390511 
L 59.551475 303.8115 
L 60.527213 302.519042 
L 63.454426 301.526081 
L 64.430164 300.53687 
L 65.405902 299.838689 
L 66.381639 297.320665 
L 67.357377 296.324196 
L 70.28459 295.337042 
L 71.260328 294.343235 
L 73.211803 291.163438 
L 76.139016 289.076394 
L 77.114754 288.081498 
L 81.017705 287.382591 
L 82.96918 286.397372 
L 84.920656 284.425603 
L 85.896393 282.841632 
L 86.872131 279.162634 
L 87.847869 278.179108 
L 89.799344 276.594774 
L 91.75082 274.604861 
L 93.702295 273.87523 
L 98.580984 269.015662 
L 99.556721 267.418506 
L 102.483934 266.423489 
L 103.459672 265.433553 
L 106.386885 263.840509 
L 107.362623 262.247345 
L 109.314098 260.657084 
L 111.265574 259.663882 
L 113.217049 258.074588 
L 114.192787 255.300492 
L 117.12 255.145905 
L 119.071475 254.14992 
L 121.022951 252.561352 
L 121.998689 250.961535 
L 123.950164 249.96543 
L 126.877377 248.973558 
L 128.828852 247.09009 
L 130.780328 246.101604 
L 133.707541 245.104652 
L 134.683279 243.210056 
L 137.610492 242.22145 
L 138.58623 241.231392 
L 140.537705 240.529703 
L 141.513443 236.890138 
L 145.416393 235.89633 
L 147.367869 234.896233 
L 148.343607 233.295569 
L 149.319344 232.600049 
L 152.246557 231.605879 
L 153.222295 230.613886 
L 156.149508 228.326412 
L 160.052459 227.335507 
L 161.028197 226.334805 
L 162.979672 225.336764 
L 165.906885 224.350093 
L 167.858361 223.356407 
L 169.809836 219.57931 
L 171.761311 218.590341 
L 173.712787 217.308165 
L 175.664262 216.321132 
L 176.64 215.324058 
L 178.591475 212.128295 
L 180.542951 211.138237 
L 181.518689 210.153744 
L 183.470164 206.993543 
L 185.421639 205.003993 
L 187.373115 204.003412 
L 190.300328 201.685818 
L 192.251803 200.696244 
L 194.203279 198.712984 
L 196.154754 197.123691 
L 197.130492 195.535123 
L 200.057705 192.539549 
L 202.00918 191.547677 
L 202.984918 189.951972 
L 203.960656 187.15828 
L 204.936393 186.161933 
L 206.887869 185.175504 
L 207.863607 184.174923 
L 209.815082 182.593734 
L 210.79082 180.995368 
L 214.69377 180.000714 
L 215.669508 179.006544 
L 217.620984 175.817796 
L 219.572459 174.822296 
L 222.499672 173.822319 
L 224.451148 172.222623 
L 230.305574 170.726469 
L 231.281311 167.94197 
L 234.208525 166.942236 
L 237.135738 165.36407 
L 238.111475 163.767519 
L 241.038689 162.778671 
L 242.990164 161.785832 
L 243.965902 160.492769 
L 244.941639 159.795919 
L 247.868852 158.803684 
L 250.796066 157.214753 
L 251.771803 155.611066 
L 257.62623 154.022982 
L 258.601967 152.440341 
L 263.480656 151.445203 
L 267.383607 150.053316 
L 268.359344 149.359127 
L 271.286557 148.366287 
L 273.238033 145.774598 
L 283.971148 143.190409 
L 285.922623 140.560739 
L 287.874098 139.571286 
L 288.849836 138.575422 
L 290.801311 137.580405 
L 292.752787 134.393714 
L 294.704262 132.405252 
L 295.68 131.697878 
L 297.631475 130.696572 
L 299.582951 130.003108 
L 301.534426 128.019122 
L 304.461639 127.016484 
L 305.437377 126.321569 
L 306.413115 124.432295 
L 313.243279 122.845542 
L 314.219016 121.553447 
L 315.194754 120.559035 
L 317.14623 118.919664 
L 318.121967 117.917148 
L 320.073443 114.610464 
L 325.927869 112.663613 
L 326.903607 109.841858 
L 329.83082 108.845389 
L 331.782295 107.846744 
L 333.73377 104.593887 
L 339.588197 102.957661 
L 340.563934 101.365707 
L 347.394098 99.177299 
L 347.394098 98.336868 
L 353.248525 97.636752 
L 354.224262 92.521596 
L 357.151475 90.926375 
L 363.981639 89.251684 
L 366.908852 87.348015 
L 367.88459 85.705862 
L 372.763279 84.700927 
L 373.739016 82.448893 
L 376.66623 81.452062 
L 380.56918 79.546821 
L 381.544918 76.723857 
L 387.399344 74.782449 
L 388.375082 73.181664 
L 393.25377 72.177091 
L 395.205246 68.973224 
L 399.108197 67.970102 
L 401.059672 66.333876 
L 402.03541 64.747123 
L 407.889836 64.014468 
L 408.865574 61.457495 
L 409.841311 60.452801 
L 409.841311 60.452801 
" style="fill:none;stroke:#d62728;stroke-linecap:square;stroke-width:1.5;"/>
   </g>
   <g id="line2d_37">
    <path clip-path="url(#p1b33e1bc38)" d="M 60.527213 306.894649 
L 64.430164 304.980094 
L 65.405902 303.378342 
L 66.381639 301.764856 
L 68.333115 300.766452 
L 71.260328 298.833512 
L 72.236066 296.9244 
L 75.163279 295.921037 
L 76.139016 294.922512 
L 78.090492 293.021626 
L 79.06623 291.113119 
L 81.993443 290.118344 
L 82.96918 289.391011 
L 84.920656 287.482988 
L 85.896393 284.660266 
L 89.799344 283.657144 
L 90.775082 281.753718 
L 91.75082 279.845574 
L 92.726557 278.840759 
L 94.678033 277.840783 
L 95.65377 276.840685 
L 97.605246 274.940283 
L 102.483934 273.944419 
L 104.43541 272.940209 
L 105.411148 271.034122 
L 106.386885 269.130332 
L 109.314098 267.219527 
L 112.241311 266.512153 
L 113.217049 265.81373 
L 117.12 264.828753 
L 120.047213 262.924842 
L 121.022951 261.022504 
L 126.877377 260.324323 
L 127.853115 259.318662 
L 131.756066 258.31796 
L 134.683279 255.521606 
L 135.659016 253.625316 
L 141.513443 252.632356 
L 147.367869 251.023346 
L 148.343607 250.034498 
L 152.246557 249.031256 
L 157.125246 248.030916 
L 161.028197 246.123135 
L 167.858361 245.129207 
L 171.761311 243.827194 
L 184.445902 242.82758 
L 187.373115 241.2274 
L 193.227541 240.225489 
L 212.742295 239.227085 
L 214.69377 238.22094 
L 222.499672 236.61193 
L 223.47541 235.602035 
L 224.451148 234.904458 
L 230.305574 234.627702 
L 230.305574 234.349615 
L 230.305574 234.073705 
" style="fill:none;stroke:#9467bd;stroke-linecap:square;stroke-width:1.5;"/>
   </g>
   <g id="patch_3">
    <path d="M 57.6 307.584 
L 57.6 41.472 
" style="fill:none;stroke:#000000;stroke-linecap:square;stroke-linejoin:miter;stroke-width:0.8;"/>
   </g>
   <g id="patch_4">
    <path d="M 414.72 307.584 
L 414.72 41.472 
" style="fill:none;stroke:#000000;stroke-linecap:square;stroke-linejoin:miter;stroke-width:0.8;"/>
   </g>
   <g id="patch_5">
    <path d="M 57.6 307.584 
L 414.72 307.584 
" style="fill:none;stroke:#000000;stroke-linecap:square;stroke-linejoin:miter;stroke-width:0.8;"/>
   </g>
   <g id="patch_6">
    <path d="M 57.6 41.472 
L 414.72 41.472 
" style="fill:none;stroke:#000000;stroke-linecap:square;stroke-linejoin:miter;stroke-width:0.8;"/>
   </g>
   <g id="text_19">
    <!-- updated on 2022-06-26 16:09:38 -->
    <defs>
     <path d="M 18.109375 8.203125 
L 18.109375 -20.796875 
L 9.078125 -20.796875 
L 9.078125 54.6875 
L 18.109375 54.6875 
L 18.109375 46.390625 
Q 20.953125 51.265625 25.265625 53.625 
Q 29.59375 56 35.59375 56 
Q 45.5625 56 51.78125 48.09375 
Q 58.015625 40.1875 58.015625 27.296875 
Q 58.015625 14.40625 51.78125 6.484375 
Q 45.5625 -1.421875 35.59375 -1.421875 
Q 29.59375 -1.421875 25.265625 0.953125 
Q 20.953125 3.328125 18.109375 8.203125 
z
M 48.6875 27.296875 
Q 48.6875 37.203125 44.609375 42.84375 
Q 40.53125 48.484375 33.40625 48.484375 
Q 26.265625 48.484375 22.1875 42.84375 
Q 18.109375 37.203125 18.109375 27.296875 
Q 18.109375 17.390625 22.1875 11.75 
Q 26.265625 6.109375 33.40625 6.109375 
Q 40.53125 6.109375 44.609375 11.75 
Q 48.6875 17.390625 48.6875 27.296875 
z
" id="DejaVuSans-112"/>
     <path d="M 4.890625 31.390625 
L 31.203125 31.390625 
L 31.203125 23.390625 
L 4.890625 23.390625 
z
" id="DejaVuSans-45"/>
     <path d="M 33.015625 40.375 
Q 26.375 40.375 22.484375 35.828125 
Q 18.609375 31.296875 18.609375 23.390625 
Q 18.609375 15.53125 22.484375 10.953125 
Q 26.375 6.390625 33.015625 6.390625 
Q 39.65625 6.390625 43.53125 10.953125 
Q 47.40625 15.53125 47.40625 23.390625 
Q 47.40625 31.296875 43.53125 35.828125 
Q 39.65625 40.375 33.015625 40.375 
z
M 52.59375 71.296875 
L 52.59375 62.3125 
Q 48.875 64.0625 45.09375 64.984375 
Q 41.3125 65.921875 37.59375 65.921875 
Q 27.828125 65.921875 22.671875 59.328125 
Q 17.53125 52.734375 16.796875 39.40625 
Q 19.671875 43.65625 24.015625 45.921875 
Q 28.375 48.1875 33.59375 48.1875 
Q 44.578125 48.1875 50.953125 41.515625 
Q 57.328125 34.859375 57.328125 23.390625 
Q 57.328125 12.15625 50.6875 5.359375 
Q 44.046875 -1.421875 33.015625 -1.421875 
Q 20.359375 -1.421875 13.671875 8.265625 
Q 6.984375 17.96875 6.984375 36.375 
Q 6.984375 53.65625 15.1875 63.9375 
Q 23.390625 74.21875 37.203125 74.21875 
Q 40.921875 74.21875 44.703125 73.484375 
Q 48.484375 72.75 52.59375 71.296875 
z
" id="DejaVuSans-54"/>
     <path d="M 11.71875 12.40625 
L 22.015625 12.40625 
L 22.015625 0 
L 11.71875 0 
z
M 11.71875 51.703125 
L 22.015625 51.703125 
L 22.015625 39.3125 
L 11.71875 39.3125 
z
" id="DejaVuSans-58"/>
     <path d="M 31.78125 34.625 
Q 24.75 34.625 20.71875 30.859375 
Q 16.703125 27.09375 16.703125 20.515625 
Q 16.703125 13.921875 20.71875 10.15625 
Q 24.75 6.390625 31.78125 6.390625 
Q 38.8125 6.390625 42.859375 10.171875 
Q 46.921875 13.96875 46.921875 20.515625 
Q 46.921875 27.09375 42.890625 30.859375 
Q 38.875 34.625 31.78125 34.625 
z
M 21.921875 38.8125 
Q 15.578125 40.375 12.03125 44.71875 
Q 8.5 49.078125 8.5 55.328125 
Q 8.5 64.0625 14.71875 69.140625 
Q 20.953125 74.21875 31.78125 74.21875 
Q 42.671875 74.21875 48.875 69.140625 
Q 55.078125 64.0625 55.078125 55.328125 
Q 55.078125 49.078125 51.53125 44.71875 
Q 48 40.375 41.703125 38.8125 
Q 48.828125 37.15625 52.796875 32.3125 
Q 56.78125 27.484375 56.78125 20.515625 
Q 56.78125 9.90625 50.3125 4.234375 
Q 43.84375 -1.421875 31.78125 -1.421875 
Q 19.734375 -1.421875 13.25 4.234375 
Q 6.78125 9.90625 6.78125 20.515625 
Q 6.78125 27.484375 10.78125 32.3125 
Q 14.796875 37.15625 21.921875 38.8125 
z
M 18.3125 54.390625 
Q 18.3125 48.734375 21.84375 45.5625 
Q 25.390625 42.390625 31.78125 42.390625 
Q 38.140625 42.390625 41.71875 45.5625 
Q 45.3125 48.734375 45.3125 54.390625 
Q 45.3125 60.0625 41.71875 63.234375 
Q 38.140625 66.40625 31.78125 66.40625 
Q 25.390625 66.40625 21.84375 63.234375 
Q 18.3125 60.0625 18.3125 54.390625 
z
" id="DejaVuSans-56"/>
    </defs>
    <g transform="translate(214.79625 35.472)scale(0.12 -0.12)">
     <use xlink:href="#DejaVuSans-117"/>
     <use x="63.378906" xlink:href="#DejaVuSans-112"/>
     <use x="126.855469" xlink:href="#DejaVuSans-100"/>
     <use x="190.332031" xlink:href="#DejaVuSans-97"/>
     <use x="251.611328" xlink:href="#DejaVuSans-116"/>
     <use x="290.820312" xlink:href="#DejaVuSans-101"/>
     <use x="352.34375" xlink:href="#DejaVuSans-100"/>
     <use x="415.820312" xlink:href="#DejaVuSans-32"/>
     <use x="447.607422" xlink:href="#DejaVuSans-111"/>
     <use x="508.789062" xlink:href="#DejaVuSans-110"/>
     <use x="572.167969" xlink:href="#DejaVuSans-32"/>
     <use x="603.955078" xlink:href="#DejaVuSans-50"/>
     <use x="667.578125" xlink:href="#DejaVuSans-48"/>
     <use x="731.201172" xlink:href="#DejaVuSans-50"/>
     <use x="794.824219" xlink:href="#DejaVuSans-50"/>
     <use x="858.447266" xlink:href="#DejaVuSans-45"/>
     <use x="894.53125" xlink:href="#DejaVuSans-48"/>
     <use x="958.154297" xlink:href="#DejaVuSans-54"/>
     <use x="1021.777344" xlink:href="#DejaVuSans-45"/>
     <use x="1057.861328" xlink:href="#DejaVuSans-50"/>
     <use x="1121.484375" xlink:href="#DejaVuSans-54"/>
     <use x="1185.107422" xlink:href="#DejaVuSans-32"/>
     <use x="1216.894531" xlink:href="#DejaVuSans-49"/>
     <use x="1280.517578" xlink:href="#DejaVuSans-54"/>
     <use x="1344.140625" xlink:href="#DejaVuSans-58"/>
     <use x="1377.832031" xlink:href="#DejaVuSans-48"/>
     <use x="1441.455078" xlink:href="#DejaVuSans-57"/>
     <use x="1505.078125" xlink:href="#DejaVuSans-58"/>
     <use x="1538.769531" xlink:href="#DejaVuSans-51"/>
     <use x="1602.392578" xlink:href="#DejaVuSans-56"/>
    </g>
   </g>
   <g id="legend_1">
    <g id="patch_7">
     <path d="M 64.6 122.862625 
L 122.05 122.862625 
Q 124.05 122.862625 124.05 120.862625 
L 124.05 48.472 
Q 124.05 46.472 122.05 46.472 
L 64.6 46.472 
Q 62.6 46.472 62.6 48.472 
L 62.6 120.862625 
Q 62.6 122.862625 64.6 122.862625 
z
" style="fill:#ffffff;opacity:0.8;stroke:#cccccc;stroke-linejoin:miter;"/>
    </g>
    <g id="line2d_38">
     <path d="M 66.6 54.570438 
L 86.6 54.570438 
" style="fill:none;stroke:#1f77b4;stroke-linecap:square;stroke-width:1.5;"/>
    </g>
    <g id="line2d_39"/>
    <g id="text_20">
     <!-- 2018 -->
     <g transform="translate(94.6 58.070438)scale(0.1 -0.1)">
      <use xlink:href="#DejaVuSans-50"/>
      <use x="63.623047" xlink:href="#DejaVuSans-48"/>
      <use x="127.246094" xlink:href="#DejaVuSans-49"/>
      <use x="190.869141" xlink:href="#DejaVuSans-56"/>
     </g>
    </g>
    <g id="line2d_40">
     <path d="M 66.6 69.248563 
L 86.6 69.248563 
" style="fill:none;stroke:#ff7f0e;stroke-linecap:square;stroke-width:1.5;"/>
    </g>
    <g id="line2d_41"/>
    <g id="text_21">
     <!-- 2019 -->
     <g transform="translate(94.6 72.748563)scale(0.1 -0.1)">
      <use xlink:href="#DejaVuSans-50"/>
      <use x="63.623047" xlink:href="#DejaVuSans-48"/>
      <use x="127.246094" xlink:href="#DejaVuSans-49"/>
      <use x="190.869141" xlink:href="#DejaVuSans-57"/>
     </g>
    </g>
    <g id="line2d_42">
     <path d="M 66.6 83.926688 
L 86.6 83.926688 
" style="fill:none;stroke:#2ca02c;stroke-linecap:square;stroke-width:1.5;"/>
    </g>
    <g id="line2d_43"/>
    <g id="text_22">
     <!-- 2020 -->
     <g transform="translate(94.6 87.426688)scale(0.1 -0.1)">
      <use xlink:href="#DejaVuSans-50"/>
      <use x="63.623047" xlink:href="#DejaVuSans-48"/>
      <use x="127.246094" xlink:href="#DejaVuSans-50"/>
      <use x="190.869141" xlink:href="#DejaVuSans-48"/>
     </g>
    </g>
    <g id="line2d_44">
     <path d="M 66.6 98.604813 
L 86.6 98.604813 
" style="fill:none;stroke:#d62728;stroke-linecap:square;stroke-width:1.5;"/>
    </g>
    <g id="line2d_45"/>
    <g id="text_23">
     <!-- 2021 -->
     <g transform="translate(94.6 102.104813)scale(0.1 -0.1)">
      <use xlink:href="#DejaVuSans-50"/>
      <use x="63.623047" xlink:href="#DejaVuSans-48"/>
      <use x="127.246094" xlink:href="#DejaVuSans-50"/>
      <use x="190.869141" xlink:href="#DejaVuSans-49"/>
     </g>
    </g>
    <g id="line2d_46">
     <path d="M 66.6 113.282938 
L 86.6 113.282938 
" style="fill:none;stroke:#9467bd;stroke-linecap:square;stroke-width:1.5;"/>
    </g>
    <g id="line2d_47"/>
    <g id="text_24">
     <!-- 2022 -->
     <g transform="translate(94.6 116.782938)scale(0.1 -0.1)">
      <use xlink:href="#DejaVuSans-50"/>
      <use x="63.623047" xlink:href="#DejaVuSans-48"/>
      <use x="127.246094" xlink:href="#DejaVuSans-50"/>
      <use x="190.869141" xlink:href="#DejaVuSans-50"/>
     </g>
    </g>
   </g>
  </g>
 </g>
 <defs>
  <clipPath id="p1b33e1bc38">
   <rect height="266.112" width="357.12" x="57.6" y="41.472"/>
  </clipPath>
 </defs>
</svg>
